<?xml version="1.0" encoding="UTF-8" standalone="no"?>
<!-- Generator: Adobe Illustrator 19.2.1, SVG Export Plug-In . SVG Version: 6.00 Build 0)  -->

<svg
   version="1.1"
   id="layer"
   x="0px"
   y="0px"
   viewBox="0 0 652 652"
   style="enable-background:new 0 0 652 652;"
   xml:space="preserve"
   sodipodi:docname="alfred-state-logo-A.svg"
   inkscape:version="1.4.3 (0d15f75042, 2025-12-25)"
   xmlns:inkscape="http://www.inkscape.org/namespaces/inkscape"
   xmlns:sodipodi="http://sodipodi.sourceforge.net/DTD/sodipodi-0.dtd"
   xmlns="http://www.w3.org/2000/svg"
   xmlns:svg="http://www.w3.org/2000/svg"><defs
   id="defs45" /><sodipodi:namedview
   id="namedview45"
   pagecolor="#505050"
   bordercolor="#eeeeee"
   borderopacity="1"
   inkscape:showpageshadow="0"
   inkscape:pageopacity="0"
   inkscape:pagecheckerboard="0"
   inkscape:deskcolor="#505050"
   inkscape:zoom="0.62193252"
   inkscape:cx="430.11097"
   inkscape:cy="431.71887"
   inkscape:window-width="1920"
   inkscape:window-height="1013"
   inkscape:window-x="0"
   inkscape:window-y="0"
   inkscape:window-maximized="1"
   inkscape:current-layer="layer" />
<style
   type="text/css"
   id="style1">
	.st0{fill:#FFD700;}
</style>
<g
   id="g45"
   transform="matrix(3.4386545,0,0,3.0332102,-779.58575,-502.27598)">
	<path
   class="st0"
   d="m 331.1,275.4 c -0.6,1.4 1.6,0 0,0"
   id="path1" />
	<path
   class="st0"
   d="m 328.4,191.7 c -4,-8.8 -5.3,-14.2 -6.3,-14.2 -0.8,0 -5.1,5.7 -9.6,16.2 L 263.6,309 c 1.6,-0.7 77,-33.7 98.3,-35 -14.8,-36.5 -29.8,-74.1 -33.5,-82.3 m 2.7,83.7 -16.7,5.6 c -7.4,2.7 -19.4,7.2 -23.1,9.3 l 21.2,-61.7 c 0.5,-1.6 1.1,-3.6 1.9,0 z"
   id="path2" />
	<path
   class="st0"
   d="m 409.2,363.2 c -1.2,-0.4 -1.1,-0.3 -4.8,-1.1 -6.5,-1.3 -9,-8 -17.1,-26.8 -5.8,-13.5 -14.4,-34.5 -23.3,-56.4 -0.4,0 -29.5,0.3 -118.3,71.5 v 0 c -2,3.7 -3.5,5.5 -5.7,8.3 -1.8,2.3 -3.8,3.2 -4.7,3.6 -2.6,1.2 -6.2,2 -6.2,4.5 h 4.7 19.4 24.1 2.8 c 0.1,-1.7 -5.3,-3.9 -6.6,-4.6 -1.5,-0.9 -1.6,-1.4 -2,-2 -0.6,-0.9 -1.1,-2.7 -1.1,-5.7 0,-5.1 2.5,-10.4 3,-11.2 1.6,-2.4 4.1,-5.8 9,-9.1 3.4,-2.3 12.1,-8.9 18.5,-12.6 0.8,-0.4 36.7,-22.3 37.6,-22.9 l 8,20.4 12.6,35.4 c 1.4,3.2 1.3,5.8 -2,7.8 -3,1.8 -5.9,3.2 -5.8,4.6 h 56.7 6.1 c 0,-1.5 -3.1,-3.1 -4.9,-3.7"
   id="path3" />
	
	
	
	
	
	
	
	
	
	
	
	
	
	
	
	
	
	
	
	
	
	
	
	
	
	
	
	
	
	
	
	
	
	
	
	
	
	
	
	
	
	
</g>
</svg>
