<?xml version="1.0" encoding="utf-8"?>
<!-- Generator: Adobe Illustrator 19.2.1, SVG Export Plug-In . SVG Version: 6.00 Build 0)  -->
<svg version="1.1" id="layer" xmlns="http://www.w3.org/2000/svg" xmlns:xlink="http://www.w3.org/1999/xlink" x="0px" y="0px"
	 viewBox="0 0 652 652" style="enable-background:new 0 0 652 652;" xml:space="preserve">
<style type="text/css">
	.st0{fill:#FFD700;}
</style>
<g>
	<path class="st0" d="M331.1,275.4C330.5,276.8,332.7,275.4,331.1,275.4"/>
	<path class="st0" d="M328.4,191.7c-4-8.8-5.3-14.2-6.3-14.2c-0.8,0-5.1,5.7-9.6,16.2L263.6,309c1.6-0.7,77-33.7,98.3-35
		C347.1,237.5,332.1,199.9,328.4,191.7 M331.1,275.4l-16.7,5.6c-7.4,2.7-19.4,7.2-23.1,9.3l21.2-61.7c0.5-1.6,1.1-3.6,1.9,0
		L331.1,275.4z"/>
	<path class="st0" d="M409.2,363.2c-1.2-0.4-1.1-0.3-4.8-1.1c-6.5-1.3-9-8-17.1-26.8c-5.8-13.5-14.4-34.5-23.3-56.4
		c-0.4,0-29.5,0.3-118.3,71.5l0,0c-2,3.7-3.5,5.5-5.7,8.3c-1.8,2.3-3.8,3.2-4.7,3.6c-2.6,1.2-6.2,2-6.2,4.5h4.7h19.4h24.1h2.8
		c0.1-1.7-5.3-3.9-6.6-4.6c-1.5-0.9-1.6-1.4-2-2c-0.6-0.9-1.1-2.7-1.1-5.7c0-5.1,2.5-10.4,3-11.2c1.6-2.4,4.1-5.8,9-9.1
		c3.4-2.3,12.1-8.9,18.5-12.6c0.8-0.4,36.7-22.3,37.6-22.9l8,20.4l12.6,35.4c1.4,3.2,1.3,5.8-2,7.8c-3,1.8-5.9,3.2-5.8,4.6H408h6.1
		C414.1,365.4,411,363.8,409.2,363.2"/>
	<path class="st0" d="M23.2,464.5c-0.4-0.2-0.5-0.5-0.5-0.9c0-1.9,0.1-2.8,0.1-3.5c0.1-0.4,0.2-0.5,0.3-0.5c0.1,0,0.2,0.1,0.2,0.3
		c0,0.2,0,0.4,0.1,0.6c0.3,1.9,2.2,3.1,4.1,3.1c2.1,0,2.8-1,2.8-1.9c0-0.9-0.3-1.6-2.3-3l-1.4-1c-2.8-1.9-3.5-3.4-3.5-5.5
		c0-2.6,2.3-4.8,6.1-4.8c1.1,0,1.8,0.1,2.8,0.3c0.4,0.1,0.8,0.2,1.2,0.3c0.2,0.1,0.3,0.1,0.3,0.3c0,0.8-0.1,1.2-0.1,3.3
		c0,0.4-0.1,0.5-0.3,0.5c-0.1,0-0.3-0.1-0.3-0.4c0-0.3-0.1-0.8-0.4-1.2c-0.5-0.8-1.7-1.6-3.3-1.6c-1.9,0-2.6,1.1-2.6,2.1
		c0,1,0.5,1.7,1.8,2.5l1.3,0.8c3.4,2.1,4.3,3.4,4.3,5.6c0,1.8-0.8,3.4-2.6,4.3c-1.4,0.8-3,0.9-4.2,0.9
		C25.3,465.2,24.1,464.9,23.2,464.5"/>
	<path class="st0" d="M51.5,458.3c0,1.7,0,3.7,0.1,4.7c0.1,0.6,0.2,1.1,0.9,1.3c0.3,0.1,0.5,0.1,0.9,0.1c0.4,0.1,0.5,0.2,0.5,0.3
		c0,0.1-0.1,0.2-0.5,0.2c-1.6,0-4.1-0.1-4.4-0.1c-0.3,0-2.8,0.1-3.5,0.1c-0.4,0-0.5-0.1-0.5-0.2c0-0.2,0.2-0.3,0.5-0.3
		c0.2,0,0.5,0,0.8-0.1c0.5-0.1,0.7-0.5,0.8-1.2c0.1-1,0.1-2.5,0.1-4.8v-8.7c-0.9,0-2.4,0-3.5,0.1c-1.3,0.1-1.7,0.4-2,1.3
		c-0.1,0.2-0.1,0.3-0.2,0.5c-0.1,0.2-0.1,0.3-0.3,0.3c-0.2,0-0.2-0.2-0.2-0.5c0.1-1.1,0.3-2.3,0.5-3.3c0.1-0.3,0.2-0.5,0.3-0.5
		c0.1,0,0.3,0.1,0.7,0.2c0.3,0.1,1.8,0.2,2.7,0.2h10.4c0.7,0,1.1-0.1,1.4-0.1c0.4-0.1,0.6-0.1,0.8-0.1c0.3,0,0.2,0.1,0.2,0.8
		c0,0.3-0.2,2.6-0.2,3.1c0,0.4-0.2,0.5-0.3,0.5s-0.2-0.1-0.3-0.4c0-0.3,0-0.4,0-0.5c-0.1-0.7-0.4-1.2-1.6-1.3
		c-0.8-0.1-2.1-0.2-4-0.2V458.3z"/>
	<path class="st0" d="M66.8,460.6c-0.2,0-0.2,0.1-0.3,0.2l-0.5,1.3c-0.2,0.6-0.4,1.1-0.4,1.4c0,0.8,1,0.8,1.6,0.8
		c0.3,0,0.4,0.1,0.4,0.2c0,0.2-0.1,0.3-0.4,0.3c-1.1,0-1.9-0.1-3.3-0.1c-0.3,0-1.8,0.1-2.9,0.1c-0.4,0-0.5-0.1-0.5-0.3
		c0-0.2,0.1-0.3,0.4-0.3c1.1-0.1,1.7-0.4,2.4-2l6.2-13.3c0.5-1.2,0.8-1.5,1.1-1.5c0.3,0,0.5,0.3,0.9,1.2c0.6,1.3,4.6,9.7,6.2,13.2
		c0.8,1.7,1.2,2.3,2.1,2.4c0.2,0,0.4,0.1,0.5,0.1c0.3,0,0.4,0.1,0.4,0.3c0,0.2-0.2,0.3-0.5,0.3c-2.6,0-5.3-0.1-6.7-0.1
		c-0.3,0-0.5-0.1-0.5-0.2c0-0.2,0.2-0.2,0.3-0.3c0.2-0.1,0.4-0.1,0.3-0.4l-1.4-3.2c0-0.1-0.1-0.1-0.2-0.1H66.8z M71.4,458.5
		c0.2,0,0.2-0.1,0.1-0.1l-2.1-4.7c-0.1-0.1-0.1-0.1-0.1,0l-1.9,4.6c0,0.1,0,0.1,0.1,0.1H71.4z"/>
	<path class="st0" d="M94.1,458.3c0,1.7,0,3.7,0.1,4.7c0.1,0.6,0.2,1.1,0.9,1.3c0.3,0.1,0.5,0.1,0.9,0.1c0.4,0.1,0.5,0.2,0.5,0.3
		c0,0.1-0.1,0.2-0.5,0.2c-1.6,0-4.1-0.1-4.4-0.1c-0.3,0-2.8,0.1-3.5,0.1c-0.4,0-0.5-0.1-0.5-0.2c0-0.2,0.2-0.3,0.5-0.3
		c0.2,0,0.5,0,0.8-0.1c0.5-0.1,0.7-0.5,0.8-1.2c0.1-1,0.1-2.5,0.1-4.8v-8.7c-0.9,0-2.4,0-3.5,0.1c-1.3,0.1-1.7,0.4-2,1.3
		c-0.1,0.2-0.1,0.3-0.2,0.5c-0.1,0.2-0.1,0.3-0.3,0.3c-0.2,0-0.2-0.2-0.2-0.5c0.1-1.1,0.3-2.3,0.5-3.3c0.1-0.3,0.2-0.5,0.3-0.5
		c0.1,0,0.3,0.1,0.7,0.2c0.3,0.1,1.8,0.2,2.7,0.2H98c0.7,0,1.1-0.1,1.4-0.1c0.4-0.1,0.6-0.1,0.8-0.1c0.3,0,0.2,0.1,0.2,0.8
		c0,0.3-0.2,2.6-0.2,3.1c0,0.4-0.2,0.5-0.3,0.5s-0.2-0.1-0.3-0.4c0-0.3,0-0.4,0-0.5c-0.1-0.7-0.4-1.2-1.6-1.3
		c-0.8-0.1-2.1-0.2-4-0.2V458.3z"/>
	<path class="st0" d="M109.7,454.3c0-3.7,0-4.2-0.1-4.9c-0.1-0.6-0.3-0.9-0.8-1c-0.2-0.1-0.5-0.1-0.7-0.1c-0.3,0-0.4-0.2-0.4-0.3
		c0-0.1,0.1-0.2,0.5-0.2c1.4,0,2.5,0.1,3.5,0.1c0.4,0,6.4,0,6.8,0c0.4,0,0.9,0,1.3-0.1c0.2-0.1,0.3-0.1,0.4-0.1
		c0.1,0,0.2,0.1,0.2,0.2c-0.1,0.3-0.1,0.6-0.2,1.1c0,0.6-0.1,1-0.1,2.4c0,0.2-0.1,0.4-0.3,0.4c-0.1,0-0.2-0.1-0.3-0.3
		c-0.1-0.3-0.1-0.5-0.1-0.8c-0.1-0.5-0.4-0.8-1.5-0.9c-0.9-0.1-2.8-0.1-3.5-0.1c-0.1,0-0.2,0.1-0.2,0.2v4.8c0,0.2,0,0.2,0.2,0.2
		c0.7,0,2.3,0,3.2,0c1.3-0.1,1.6-0.1,1.9-0.6c0.1-0.2,0.2-0.3,0.3-0.3c0.2,0,0.2,0.2,0.2,0.3c0,0.3-0.2,1.3-0.2,2.1
		c0,0.5-0.1,1.7-0.1,2c0,0.3-0.1,0.4-0.2,0.4c-0.1,0-0.2-0.1-0.3-0.4c0-0.1,0-0.3-0.1-0.4c-0.1-0.7-0.4-1.1-1.6-1.2
		c-0.7-0.1-2.5-0.1-3.2-0.1c-0.1,0-0.2,0.1-0.2,0.2v1.6c0,0.8,0,1.8,0,2.7c0,1.6,0.3,1.9,3,1.9c0.6,0,1.5,0,2.2-0.3
		c0.7-0.3,0.9-0.8,1.1-1.8c0.1-0.3,0.2-0.4,0.3-0.4c0.2,0,0.2,0.2,0.2,0.5c0,1-0.2,2.8-0.3,3.3c-0.2,0.6-0.4,0.6-1.2,0.6
		c-3.5,0-5.1-0.1-7.6-0.1c-1.1,0-2.2,0.1-3.5,0.1c-0.4,0-0.5-0.1-0.5-0.3c0-0.1,0.1-0.2,0.5-0.2c0.2,0,0.4,0,0.7-0.1
		c0.8-0.1,0.8-1,0.9-2.6c0-0.9,0-2.1,0-3.4V454.3z"/>
	<path class="st0" d="M147.4,457.7c0,3.1,0.4,4.3,1.8,5.2c0.9,0.5,1.6,0.5,2.1,0.5c0.7,0,1.6-0.1,2.4-0.7c1.4-1.1,1.3-3.5,1.3-5.8
		v-2.7c0-3.3,0-3.8-0.1-4.5c-0.1-0.9-0.2-1.3-1-1.4c-0.3-0.1-0.3-0.1-0.9-0.1c-0.3,0-0.4-0.2-0.4-0.3c0-0.2,0.1-0.2,0.5-0.2
		c1.4,0,2.8,0.1,3.3,0.1c0.4,0,1.9-0.1,3.1-0.1c0.4,0,0.5,0.1,0.5,0.3c0,0.1-0.1,0.2-0.4,0.3c-0.2,0-0.4,0-0.7,0.1
		c-0.6,0.1-0.8,0.4-0.9,1.4c-0.1,0.7-0.1,1.2-0.1,4.5v2.2c0,2.6-0.1,5.4-2.4,7.2c-1.4,1.1-3.2,1.5-4.8,1.5c-2.3,0-4.3-0.4-5.6-1.5
		c-1.3-1-2.2-2.6-2.2-5.9v-3.4c0-3.5,0-4.1-0.1-4.8c-0.1-0.6-0.2-0.9-0.7-1c-0.3-0.1-0.8-0.1-1-0.2c-0.4-0.1-0.4-0.2-0.4-0.3
		c0-0.1,0.1-0.2,0.6-0.2c0.9,0,3.5,0.1,3.6,0.1c0.1,0,3.2-0.1,4-0.1c0.4,0,0.6,0.1,0.6,0.2c0,0.2-0.1,0.2-0.4,0.3
		c-0.2,0-0.6,0.1-0.8,0.1c-0.7,0.1-0.8,0.6-0.9,1.3c-0.1,0.7-0.1,1.8-0.1,4.6V457.7z"/>
	<path class="st0" d="M169.1,448.6c0-0.8,0.1-1.1,0.4-1.1c0.1,0,0.2,0,0.9,0.5c1.1,0.9,4.7,4,7.6,6.5c2.6,2.3,3.8,3.3,4.5,3.9
		l-0.1-8c-0.1-1.2-0.2-1.8-1.2-2c-0.3-0.1-0.6-0.1-0.9-0.1c-0.3,0-0.4-0.2-0.4-0.3c0-0.2,0.2-0.3,0.4-0.3c0.9,0,2.5,0.1,3.5,0.1
		c0.6,0,1.8-0.1,2.7-0.1c0.4,0,0.5,0.1,0.5,0.2c0,0.1-0.1,0.3-0.4,0.3c-0.3,0-0.4,0-0.5,0.1c-0.8,0.1-1,0.4-1.1,1.9
		c-0.2,4.2-0.3,8.8-0.3,13.4c0,1.3-0.2,1.5-0.5,1.5c-0.4,0-1.2-0.6-3-2.1c-1.6-1.4-3.5-2.9-4.6-4c-1.3-1.1-3.3-2.8-5.3-4.7l0.2,7.3
		c0.1,1.6,0.1,2.2,0.8,2.4c0.4,0.1,0.7,0.1,1.2,0.2c0.4,0.1,0.5,0.1,0.5,0.3c0,0.2-0.2,0.3-0.6,0.3c-0.7,0-1.4-0.1-3-0.1
		c-0.6,0-2.5,0.1-3.3,0.1c-0.4,0-0.5-0.1-0.5-0.3c0-0.1,0.1-0.2,0.4-0.3c0.2,0,0.4,0,0.7-0.1c1-0.1,1.2-0.6,1.3-2.7
		C169,456.9,169,451.7,169.1,448.6"/>
	<path class="st0" d="M196.4,454.3c0-3.5,0-4.1-0.1-4.8c-0.1-0.6-0.2-1-0.8-1.1c-0.2-0.1-0.4-0.1-0.7-0.1c-0.3,0-0.4-0.1-0.4-0.3
		c0-0.1,0.1-0.3,0.5-0.3c0.9,0,3.4,0.1,3.5,0.1c0.1,0,3.1-0.1,4-0.1c0.4,0,0.5,0.1,0.5,0.3c0,0.2-0.2,0.2-0.5,0.3
		c-0.2,0-0.3,0-0.5,0.1c-0.6,0.1-0.8,0.4-0.9,1.1c-0.1,0.7-0.1,1.3-0.1,4.8v4c0,1.7,0,3.8,0.1,4.8c0.1,0.6,0.2,1,0.9,1.1
		c0.3,0.1,0.7,0.1,1,0.1c0.4,0,0.5,0.2,0.5,0.3c0,0.1-0.1,0.2-0.5,0.2c-1.6,0-4.3-0.1-4.4-0.1c-0.1,0-2.8,0.1-3.5,0.1
		c-0.4,0-0.5-0.1-0.5-0.3c0-0.1,0.1-0.3,0.4-0.3c0.2,0,0.4,0,0.8-0.1c0.5-0.1,0.7-0.6,0.8-1.2c0.1-0.9,0.2-2.5,0.2-4.7V454.3z"/>
	<path class="st0" d="M211.1,450.1c-0.7-1.5-0.9-1.6-1.7-1.7c0,0-0.4-0.1-0.5-0.1c-0.2,0-0.3-0.2-0.3-0.3c0-0.1,0.2-0.3,0.4-0.3
		c1.3,0,2.7,0.1,3.6,0.1c0.9,0,2.2-0.1,4.2-0.1c0.4,0,0.5,0.1,0.5,0.3c0,0.1-0.1,0.2-0.3,0.3c-0.3,0-0.3,0.1-0.6,0.1
		c-0.7,0.1-0.8,0.3-0.8,0.5c0,0.3,0.1,0.7,0.5,1.7c1,2.6,2.5,5.8,3.5,8.3c0.9-1.9,2.8-6.2,3.8-8.9c0.3-0.7,0.3-0.9,0.3-1.1
		c0-0.3-0.1-0.4-0.6-0.5c-0.3-0.1-0.7-0.1-0.9-0.1c-0.3-0.1-0.4-0.1-0.4-0.3c0-0.1,0.1-0.3,0.5-0.3c1.6,0,2.8,0.1,3.1,0.1
		c0.4,0,1.9-0.1,2.7-0.1c0.4,0,0.5,0.1,0.5,0.3c0,0.2-0.1,0.2-0.4,0.3c-0.3,0-0.6,0-1,0.2c-0.5,0.2-0.9,0.7-1.5,2
		c-0.9,1.9-1.8,3.9-3.2,6.7c-1.5,3.2-2.5,5.1-3.1,6.3c-0.7,1.3-0.9,1.6-1.3,1.6c-0.3,0-0.5-0.3-0.9-1.3L211.1,450.1z"/>
	<path class="st0" d="M236,454.3c0-3.7,0-4.2-0.1-4.9c-0.1-0.6-0.3-0.9-0.8-1c-0.2-0.1-0.5-0.1-0.7-0.1c-0.3,0-0.4-0.2-0.4-0.3
		c0-0.1,0.1-0.2,0.5-0.2c1.4,0,2.5,0.1,3.5,0.1c0.4,0,6.4,0,6.8,0c0.4,0,0.9,0,1.3-0.1c0.2-0.1,0.3-0.1,0.4-0.1
		c0.1,0,0.2,0.1,0.2,0.2c-0.1,0.3-0.1,0.6-0.2,1.1c0,0.6-0.1,1-0.1,2.4c0,0.2-0.1,0.4-0.3,0.4c-0.1,0-0.2-0.1-0.3-0.3
		c-0.1-0.3-0.1-0.5-0.1-0.8c-0.1-0.5-0.4-0.8-1.5-0.9c-0.8-0.1-2.8-0.1-3.5-0.1c-0.1,0-0.2,0.1-0.2,0.2v4.8c0,0.2,0,0.2,0.2,0.2
		c0.7,0,2.3,0,3.2,0c1.3-0.1,1.6-0.1,1.9-0.6c0.1-0.2,0.2-0.3,0.3-0.3c0.2,0,0.2,0.2,0.2,0.3c0,0.3-0.2,1.3-0.2,2.1
		c0,0.5-0.1,1.7-0.1,2c0,0.3-0.1,0.4-0.2,0.4c-0.1,0-0.2-0.1-0.3-0.4c0-0.1,0-0.3-0.1-0.4c-0.1-0.7-0.4-1.1-1.6-1.2
		c-0.7-0.1-2.5-0.1-3.2-0.1c-0.1,0-0.2,0.1-0.2,0.2v1.6c0,0.8,0,1.8,0,2.7c0,1.6,0.3,1.9,3,1.9c0.6,0,1.5,0,2.2-0.3
		c0.7-0.3,0.9-0.8,1.1-1.8c0.1-0.3,0.2-0.4,0.3-0.4c0.2,0,0.2,0.2,0.2,0.5c0,1-0.2,2.8-0.3,3.3c-0.2,0.6-0.4,0.6-1.2,0.6
		c-3.5,0-5.1-0.1-7.6-0.1c-1.1,0-2.2,0.1-3.5,0.1c-0.4,0-0.5-0.1-0.5-0.3c0-0.1,0.1-0.2,0.5-0.2c0.2,0,0.4,0,0.7-0.1
		c0.8-0.1,0.8-1,0.9-2.6c0-0.9,0-2.1,0-3.4V454.3z"/>
	<path class="st0" d="M257,454.3c0-3.5,0-3.8-0.1-4.6c-0.1-1-0.5-1.3-1-1.3c-0.4-0.1-0.6-0.1-0.8-0.1c-0.3,0-0.4-0.1-0.4-0.3
		c0-0.1,0.1-0.3,0.5-0.3c0.9,0,3.3,0.1,3.6,0.1c0.4,0,2.8-0.1,4-0.1c2.3,0,3.9,0.2,4.9,0.8c1.2,0.6,2.2,1.7,2.2,3.5
		c0,1.8-1.2,3.2-3.1,4.4c1.2,1.9,2.9,4.3,4.3,5.9c1.2,1.4,1.7,1.7,2.5,1.8c0.2,0.1,0.4,0.1,0.6,0.1c0.2,0,0.4,0.2,0.4,0.3
		c0,0.2-0.3,0.2-0.5,0.2h-2c-2.7,0-3.8-0.3-4.7-0.8c-0.7-0.4-1.4-1.4-2.2-2.7c-1.1-1.8-1.5-2.6-1.9-3.3c0-0.1-0.1-0.1-0.3-0.1
		l-1.6,0c-0.1,0-0.2,0.1-0.2,0.2v1.4c0,1.7,0.1,2.8,0.1,3.5c0.1,0.6,0.2,1,0.9,1.2c0.3,0.1,0.8,0.1,1.1,0.2c0.4,0,0.4,0.2,0.4,0.3
		c0,0.1-0.1,0.2-0.4,0.2c-1.6,0-4.3-0.1-4.5-0.1c-0.3,0-2.7,0.1-3.5,0.1c-0.4,0-0.5-0.1-0.5-0.3c0-0.1,0.2-0.2,0.4-0.2
		c0.2,0,0.5,0,0.8-0.1c0.5-0.1,0.7-0.5,0.7-1.3c0.1-0.9,0.1-2.4,0.1-4.7V454.3z M261.3,455.7c0,0.2,0.1,0.3,0.2,0.3
		c0.4,0.2,1.3,0.3,1.9,0.3c0.5,0,1.1-0.1,1.4-0.4c0.4-0.3,0.8-1.2,0.8-2.7c0-3.2-2.2-3.9-3.4-3.9c-0.3,0-0.7,0-0.9,0.1
		c-0.1,0.1-0.2,0.1-0.2,0.3V455.7z"/>
	<path class="st0" d="M281,464.5c-0.4-0.2-0.5-0.5-0.5-0.9c0-1.9,0.1-2.8,0.1-3.5c0.1-0.4,0.2-0.5,0.3-0.5c0.1,0,0.2,0.1,0.2,0.3
		c0,0.2,0,0.4,0.1,0.6c0.3,1.9,2.2,3.1,4.1,3.1c2.1,0,2.8-1,2.8-1.9c0-0.9-0.3-1.6-2.3-3l-1.4-1c-2.8-1.9-3.5-3.4-3.5-5.5
		c0-2.6,2.3-4.8,6.1-4.8c1.1,0,1.8,0.1,2.8,0.3c0.4,0.1,0.8,0.2,1.2,0.3c0.2,0.1,0.3,0.1,0.3,0.3c0,0.8-0.1,1.2-0.1,3.3
		c0,0.4-0.1,0.5-0.3,0.5c-0.1,0-0.3-0.1-0.3-0.4c0-0.3-0.1-0.8-0.4-1.2c-0.5-0.8-1.7-1.6-3.3-1.6c-1.9,0-2.6,1.1-2.6,2.1
		c0,1,0.5,1.7,1.8,2.5l1.3,0.8c3.4,2.1,4.3,3.4,4.3,5.6c0,1.8-0.8,3.4-2.6,4.3c-1.4,0.8-3,0.9-4.2,0.9
		C283.1,465.2,281.9,464.9,281,464.5"/>
	<path class="st0" d="M301.4,454.3c0-3.5,0-4.1-0.1-4.8c-0.1-0.6-0.2-1-0.8-1.1c-0.2-0.1-0.4-0.1-0.7-0.1c-0.3,0-0.4-0.1-0.4-0.3
		c0-0.1,0.1-0.3,0.5-0.3c0.9,0,3.4,0.1,3.5,0.1c0.1,0,3.1-0.1,4-0.1c0.4,0,0.5,0.1,0.5,0.3c0,0.2-0.2,0.2-0.5,0.3
		c-0.2,0-0.3,0-0.5,0.1c-0.6,0.1-0.8,0.4-0.9,1.1c-0.1,0.7-0.1,1.3-0.1,4.8v4c0,1.7,0,3.8,0.1,4.8c0.1,0.6,0.2,1,0.9,1.1
		c0.3,0.1,0.7,0.1,1,0.1c0.4,0,0.5,0.2,0.5,0.3c0,0.1-0.1,0.2-0.5,0.2c-1.6,0-4.3-0.1-4.4-0.1c-0.1,0-2.8,0.1-3.5,0.1
		c-0.4,0-0.5-0.1-0.5-0.3c0-0.1,0.1-0.3,0.4-0.3c0.2,0,0.4,0,0.8-0.1c0.5-0.1,0.7-0.6,0.8-1.2c0.1-0.9,0.2-2.5,0.2-4.7V454.3z"/>
	<path class="st0" d="M325.6,458.3c0,1.7,0,3.7,0.1,4.7c0.1,0.6,0.2,1.1,0.9,1.3c0.3,0.1,0.5,0.1,0.9,0.1c0.4,0.1,0.5,0.2,0.5,0.3
		c0,0.1-0.1,0.2-0.5,0.2c-1.6,0-4.1-0.1-4.4-0.1c-0.3,0-2.8,0.1-3.5,0.1c-0.4,0-0.5-0.1-0.5-0.2c0-0.2,0.2-0.3,0.5-0.3
		c0.2,0,0.5,0,0.8-0.1c0.5-0.1,0.7-0.5,0.8-1.2c0.1-1,0.1-2.5,0.1-4.8v-8.7c-0.9,0-2.4,0-3.5,0.1c-1.3,0.1-1.7,0.4-2,1.3
		c-0.1,0.2-0.1,0.3-0.2,0.5c-0.1,0.2-0.1,0.3-0.3,0.3c-0.2,0-0.2-0.2-0.2-0.5c0.1-1.1,0.3-2.3,0.5-3.3c0.1-0.3,0.2-0.5,0.3-0.5
		c0.1,0,0.3,0.1,0.7,0.2c0.3,0.1,1.8,0.2,2.7,0.2h10.4c0.7,0,1.1-0.1,1.4-0.1c0.4-0.1,0.6-0.1,0.8-0.1c0.3,0,0.2,0.1,0.2,0.8
		c0,0.3-0.2,2.6-0.2,3.1c0,0.4-0.2,0.5-0.3,0.5c-0.1,0-0.2-0.1-0.3-0.4c0-0.3,0-0.4,0-0.5c-0.1-0.7-0.4-1.2-1.6-1.3
		c-0.8-0.1-2.1-0.2-4-0.2V458.3z"/>
	<path class="st0" d="M345.8,459c0-1.2-0.3-1.6-0.7-2.4c-1-1.8-3.1-5.3-3.9-6.4c-1-1.5-1.2-1.6-2-1.8c-0.1,0-0.3-0.1-0.5-0.1
		c-0.3-0.1-0.3-0.2-0.3-0.3c0-0.2,0.2-0.3,0.5-0.3c1.1,0,2.8,0.1,3.7,0.1c0.4,0,2-0.1,3.6-0.1c0.3,0,0.4,0.1,0.4,0.2
		c0,0.2-0.1,0.2-0.4,0.3c-0.7,0.1-0.9,0.3-0.9,0.4c0,0.2,0.1,0.3,0.2,0.6c0.4,0.7,3.2,5.5,3.6,6.2c1.7-3,2.6-4.7,3-5.6
		c0.2-0.5,0.4-0.8,0.4-1c0-0.3-0.1-0.5-0.9-0.6c-0.2,0-0.4-0.1-0.4-0.3c0-0.2,0.1-0.3,0.5-0.3c1,0,1.8,0.1,2.8,0.1
		c0.3,0,2.3-0.1,2.7-0.1c0.3,0,0.4,0.1,0.4,0.2c0,0.2-0.1,0.3-0.4,0.3c-0.3,0-0.6,0.1-0.9,0.2c-0.7,0.3-0.9,0.6-1.3,1.1
		c-0.8,0.9-4.1,6.5-4.4,7.5c-0.3,1-0.4,1.9-0.4,2.1v1.6c0,0.3,0,1.1,0.1,2.1c0.1,0.5,0.1,1.2,1,1.3c0.4,0.1,0.9,0.1,1.3,0.1
		c0.3,0,0.4,0.1,0.4,0.3c0,0.1-0.1,0.3-0.4,0.3c-1.7,0-3.9-0.1-4.7-0.1c-0.7,0-2.7,0.1-3.8,0.1c-0.3,0-0.5-0.1-0.5-0.3
		c0-0.1,0.1-0.2,0.4-0.2c0.4,0,0.6-0.1,0.8-0.1c0.6-0.2,0.8-0.6,0.8-1.2c0.1-1,0.1-1.9,0.1-2.3V459z"/>
	<path class="st0" d="M375.3,456.4c0-4.7,3.2-8.9,10.1-8.9c5.9,0,9.6,4,9.6,8.4c0,5.3-3.7,9.3-9.8,9.3
		C378.3,465.1,375.3,460.4,375.3,456.4 M390,456.9c0-3.4-1.2-7.9-5.5-7.9c-2,0-4.3,1-4.3,6.3c0,4.2,1.7,8.3,5.5,8.3
		C387.3,463.6,390,463,390,456.9"/>
	<path class="st0" d="M404.9,454.3c0-3.7,0-3.9-0.1-4.6c-0.1-0.8-0.3-1.2-0.9-1.3c-0.2-0.1-0.5-0.1-0.8-0.1
		c-0.2-0.1-0.4-0.1-0.4-0.3c0-0.2,0.2-0.3,0.6-0.3c1.4,0,2.7,0.1,3.6,0.1c0.4,0,6.7,0,7,0c0.5,0,1.1-0.1,1.3-0.2
		c0.2-0.1,0.3-0.1,0.4-0.1c0.2,0,0.2,0.1,0.2,0.2c0,0.2-0.1,0.7-0.2,1.2c-0.1,0.6-0.1,1.3-0.1,2.3c0,0.3-0.1,0.4-0.3,0.4
		c-0.2,0-0.2-0.2-0.3-0.4c0-0.3,0-0.4-0.1-0.7c-0.1-0.5-0.4-0.8-1.5-0.9c-0.8-0.1-3-0.1-3.7-0.1c-0.2,0-0.2,0.1-0.2,0.2v4.9
		c0,0.2,0,0.3,0.2,0.3c0.7,0,2.3,0,3.3,0c1.3-0.1,1.6-0.1,1.9-0.6c0.1-0.2,0.2-0.2,0.3-0.2c0.2,0,0.2,0.2,0.2,0.3
		c0,0.3-0.1,1.1-0.2,2c0,0.5,0,1.7,0,1.9c0,0.2-0.1,0.4-0.2,0.4c-0.1,0-0.2-0.1-0.3-0.4c0-0.2-0.1-0.3-0.1-0.4
		c-0.1-0.7-0.3-1.1-1.5-1.1c-0.8-0.1-2.6-0.1-3.3-0.1c-0.1,0-0.2,0.1-0.2,0.2v1.6c0,2.2,0,3.5,0.1,4.5c0.1,0.7,0.2,1,1.1,1.2
		c0.3,0.1,0.6,0.1,0.8,0.1c0.4,0,0.5,0.1,0.5,0.3c0,0.1-0.1,0.3-0.5,0.3c-1.3,0-1.3-0.1-4.2-0.1c-1.9,0-3.4,0.1-3.9,0.1
		c-0.3,0-0.5-0.1-0.5-0.2c0-0.1,0-0.2,0.4-0.3c0.2,0,0.4,0,0.7-0.1c0.6-0.1,0.8-0.7,0.8-1.7c0.1-1.3,0.1-2.1,0.1-4.3V454.3z"/>
	<path class="st0" d="M437.5,448.6c0-0.8,0.1-1.1,0.4-1.1c0.1,0,0.2,0,0.9,0.5c1.1,0.9,4.7,4,7.6,6.5c2.6,2.3,3.8,3.3,4.5,3.9
		l-0.1-8c-0.1-1.2-0.2-1.8-1.2-2c-0.3-0.1-0.6-0.1-0.9-0.1c-0.3,0-0.4-0.2-0.4-0.3c0-0.2,0.2-0.3,0.4-0.3c0.9,0,2.5,0.1,3.5,0.1
		c0.6,0,1.8-0.1,2.7-0.1c0.4,0,0.5,0.1,0.5,0.2c0,0.1-0.1,0.3-0.4,0.3c-0.3,0-0.4,0-0.5,0.1c-0.8,0.1-1,0.4-1.1,1.9
		c-0.2,4.2-0.3,8.8-0.3,13.4c0,1.3-0.2,1.5-0.5,1.5c-0.4,0-1.2-0.6-3-2.1c-1.6-1.4-3.5-2.9-4.6-4c-1.3-1.1-3.3-2.8-5.3-4.7l0.2,7.3
		c0.1,1.6,0.1,2.2,0.8,2.4c0.4,0.1,0.7,0.1,1.2,0.2c0.4,0.1,0.5,0.1,0.5,0.3c0,0.2-0.2,0.3-0.6,0.3c-0.7,0-1.4-0.1-3-0.1
		c-0.6,0-2.5,0.1-3.3,0.1c-0.4,0-0.5-0.1-0.5-0.3c0-0.1,0.1-0.2,0.4-0.3c0.2,0,0.4,0,0.7-0.1c1-0.1,1.2-0.6,1.3-2.7
		C437.4,456.9,437.4,451.7,437.5,448.6"/>
	<path class="st0" d="M464.8,454.3c0-3.7,0-4.2-0.1-4.9c-0.1-0.6-0.3-0.9-0.8-1c-0.2-0.1-0.5-0.1-0.7-0.1c-0.3,0-0.4-0.2-0.4-0.3
		c0-0.1,0.1-0.2,0.5-0.2c1.4,0,2.5,0.1,3.5,0.1c0.4,0,6.4,0,6.8,0c0.4,0,0.9,0,1.3-0.1c0.2-0.1,0.3-0.1,0.4-0.1
		c0.1,0,0.2,0.1,0.2,0.2c-0.1,0.3-0.1,0.6-0.2,1.1c0,0.6-0.1,1-0.1,2.4c0,0.2-0.1,0.4-0.3,0.4c-0.1,0-0.2-0.1-0.3-0.3
		c-0.1-0.3-0.1-0.5-0.1-0.8c-0.1-0.5-0.4-0.8-1.5-0.9c-0.9-0.1-2.8-0.1-3.5-0.1c-0.1,0-0.2,0.1-0.2,0.2v4.8c0,0.2,0,0.2,0.2,0.2
		c0.7,0,2.3,0,3.2,0c1.3-0.1,1.6-0.1,1.9-0.6c0.1-0.2,0.2-0.3,0.3-0.3c0.2,0,0.2,0.2,0.2,0.3c0,0.3-0.2,1.3-0.2,2.1
		c0,0.5-0.1,1.7-0.1,2c0,0.3-0.1,0.4-0.2,0.4c-0.1,0-0.2-0.1-0.3-0.4c0-0.1,0-0.3-0.1-0.4c-0.1-0.7-0.4-1.1-1.6-1.2
		c-0.7-0.1-2.5-0.1-3.2-0.1c-0.1,0-0.2,0.1-0.2,0.2v1.6c0,0.8,0,1.8,0,2.7c0,1.6,0.3,1.9,3,1.9c0.6,0,1.5,0,2.2-0.3
		c0.7-0.3,0.9-0.8,1.1-1.8c0.1-0.3,0.2-0.4,0.3-0.4c0.2,0,0.2,0.2,0.2,0.5c0,1-0.2,2.8-0.3,3.3c-0.2,0.6-0.4,0.6-1.2,0.6
		c-3.5,0-5.1-0.1-7.6-0.1c-1.1,0-2.2,0.1-3.5,0.1c-0.4,0-0.5-0.1-0.5-0.3c0-0.1,0.1-0.2,0.5-0.2c0.2,0,0.4,0,0.7-0.1
		c0.8-0.1,0.8-1,0.9-2.6c0-0.9,0-2.1,0-3.4V454.3z"/>
	<path class="st0" d="M484.5,450.1c-0.4-1-0.7-1.5-1.2-1.6c-0.3-0.1-0.5-0.1-0.7-0.1c-0.3-0.1-0.4-0.2-0.4-0.3
		c0-0.1,0.2-0.2,0.5-0.2c1.5,0,3.1,0.1,3.5,0.1c0.7,0,2.4-0.1,3.7-0.1c0.3,0,0.5,0.1,0.5,0.3c0,0.2-0.2,0.3-0.4,0.3
		c-0.2,0-0.3,0-0.6,0.1c-0.3,0.1-0.5,0.2-0.5,0.5c0,0.3,0.2,1,0.6,2c0.2,0.7,1.9,5.5,2.7,7.6l4-9.8c0.2-0.6,0.4-0.8,0.7-0.8
		c0.3,0,0.5,0.4,0.8,1.1l4.6,9.6c0.7-2,1.8-5.3,2.4-7.4c0.3-1,0.5-1.7,0.5-2c0-0.4-0.2-0.7-1.4-0.8c-0.3,0-0.4-0.1-0.4-0.2
		c0-0.1,0.1-0.3,0.5-0.3c1.6,0,2.8,0.1,3,0.1c0.2,0,1.9-0.1,2.8-0.1c0.3,0,0.5,0.1,0.5,0.2c0,0.1-0.1,0.2-0.4,0.3
		c-0.2,0-0.4,0-0.7,0.1c-0.7,0.1-1.1,0.7-1.7,2.4c-1,2.6-3.1,8.4-5,12.9c-0.3,0.8-0.6,1.5-1,1.5c-0.3,0-0.5-0.4-0.9-1.1l-4.6-9.2
		c-1.1,2.5-2.9,6.5-4.1,9c-0.4,0.8-0.7,1.3-1.1,1.3c-0.3,0-0.5-0.4-1-1.5L484.5,450.1z"/>
	<path class="st0" d="M533.1,459c0-1.2-0.3-1.6-0.7-2.4c-1-1.8-3.1-5.3-3.9-6.4c-1-1.5-1.2-1.6-2-1.8c-0.1,0-0.3-0.1-0.5-0.1
		c-0.3-0.1-0.3-0.2-0.3-0.3c0-0.2,0.2-0.3,0.5-0.3c1.1,0,2.8,0.1,3.7,0.1c0.4,0,2-0.1,3.6-0.1c0.3,0,0.4,0.1,0.4,0.2
		c0,0.2-0.1,0.2-0.4,0.3c-0.7,0.1-0.9,0.3-0.9,0.4c0,0.2,0.1,0.3,0.2,0.6c0.4,0.7,3.2,5.5,3.6,6.2c1.7-3,2.6-4.7,3-5.6
		c0.2-0.5,0.4-0.8,0.4-1c0-0.3-0.1-0.5-0.9-0.6c-0.2,0-0.4-0.1-0.4-0.3c0-0.2,0.1-0.3,0.5-0.3c1,0,1.8,0.1,2.8,0.1
		c0.3,0,2.3-0.1,2.7-0.1c0.3,0,0.4,0.1,0.4,0.2c0,0.2-0.1,0.3-0.4,0.3c-0.3,0-0.6,0.1-0.9,0.2c-0.7,0.3-0.9,0.6-1.3,1.1
		c-0.8,0.9-4.1,6.5-4.4,7.5c-0.3,1-0.4,1.9-0.4,2.1v1.6c0,0.3,0,1.1,0.1,2.1c0.1,0.5,0.1,1.2,1,1.3c0.4,0.1,0.9,0.1,1.3,0.1
		c0.3,0,0.4,0.1,0.4,0.3c0,0.1-0.1,0.3-0.4,0.3c-1.7,0-3.9-0.1-4.7-0.1c-0.7,0-2.7,0.1-3.8,0.1c-0.3,0-0.5-0.1-0.5-0.3
		c0-0.1,0.1-0.2,0.4-0.2c0.4,0,0.6-0.1,0.8-0.1c0.6-0.2,0.8-0.6,0.8-1.2c0.1-1,0.1-1.9,0.1-2.3V459z"/>
	<path class="st0" d="M550,456.4c0-4.7,3.2-8.9,10.1-8.9c5.9,0,9.6,4,9.6,8.4c0,5.3-3.7,9.3-9.8,9.3C553,465.1,550,460.4,550,456.4
		 M564.8,456.9c0-3.4-1.2-7.9-5.5-7.9c-2,0-4.3,1-4.3,6.3c0,4.2,1.7,8.3,5.5,8.3C562,463.6,564.8,463,564.8,456.9"/>
	<path class="st0" d="M579.6,454.3c0-3.5,0-3.8-0.1-4.6c-0.1-1-0.5-1.3-1-1.3c-0.4-0.1-0.6-0.1-0.8-0.1c-0.3,0-0.4-0.1-0.4-0.3
		c0-0.1,0.1-0.3,0.5-0.3c0.9,0,3.3,0.1,3.6,0.1c0.4,0,2.8-0.1,4-0.1c2.3,0,4,0.2,4.9,0.8c1.2,0.6,2.2,1.7,2.2,3.5
		c0,1.8-1.2,3.2-3.1,4.4c1.2,1.9,2.9,4.3,4.3,5.9c1.2,1.4,1.7,1.7,2.5,1.8c0.2,0.1,0.4,0.1,0.6,0.1c0.2,0,0.4,0.2,0.4,0.3
		c0,0.2-0.3,0.2-0.5,0.2h-2c-2.7,0-3.8-0.3-4.7-0.8c-0.7-0.4-1.4-1.4-2.2-2.7c-1.1-1.8-1.5-2.6-1.9-3.3c0-0.1-0.1-0.1-0.3-0.1
		l-1.6,0c-0.1,0-0.2,0.1-0.2,0.2v1.4c0,1.7,0.1,2.8,0.1,3.5c0.1,0.6,0.2,1,0.9,1.2c0.3,0.1,0.8,0.1,1.1,0.2c0.4,0,0.4,0.2,0.4,0.3
		c0,0.1-0.1,0.2-0.4,0.2c-1.6,0-4.3-0.1-4.5-0.1c-0.3,0-2.7,0.1-3.5,0.1c-0.4,0-0.5-0.1-0.5-0.3c0-0.1,0.2-0.2,0.4-0.2
		c0.2,0,0.5,0,0.8-0.1c0.5-0.1,0.7-0.5,0.7-1.3c0.1-0.9,0.1-2.4,0.1-4.7V454.3z M583.9,455.7c0,0.2,0.1,0.3,0.2,0.3
		c0.4,0.2,1.3,0.3,1.9,0.3c0.5,0,1.1-0.1,1.4-0.4c0.4-0.3,0.8-1.2,0.8-2.7c0-3.2-2.2-3.9-3.4-3.9c-0.3,0-0.7,0-0.9,0.1
		c-0.1,0.1-0.2,0.1-0.2,0.3V455.7z"/>
	<path class="st0" d="M608.2,455.7c1.3-1.2,3-2.9,5-5.1c0.7-0.8,1.2-1.3,1.2-1.7c0-0.3-0.1-0.4-0.7-0.5c-0.2,0-0.4-0.1-0.4-0.3
		c0-0.1,0.1-0.2,0.4-0.2c1.1,0,1.1,0.1,2.5,0.1c1.4,0,3.2-0.1,3.5-0.1c0.4,0,0.5,0.1,0.5,0.2c0,0.1-0.2,0.2-0.4,0.3
		c-0.3,0.1-0.5,0.1-0.8,0.1c-1.2,0.2-2,0.9-3.1,1.9c-1.1,1-3.5,3.5-4.1,4.1c0.8,1.3,4.5,5.8,6.3,7.6c1.2,1.3,1.8,1.7,2.2,1.9
		c0.4,0.2,0.7,0.3,1.2,0.4c0.4,0,0.5,0.1,0.5,0.3c0,0.2-0.2,0.2-0.5,0.2H619c-3.1,0-4.3-0.3-5.5-1.5c-1.4-1.3-3.6-4.5-5.3-6.9v1.9
		c0,1.7,0,3.8,0.1,4.7c0.1,0.6,0.2,1.1,1.1,1.2c0.3,0.1,0.7,0.1,1,0.1c0.3,0,0.4,0.2,0.4,0.3c0,0.1-0.1,0.3-0.4,0.3
		c-1.6,0-4.3-0.1-4.4-0.1c-0.1,0-2.9,0.1-3.6,0.1c-0.3,0-0.5-0.1-0.5-0.2c0-0.2,0.2-0.3,0.5-0.3c0.2,0,0.3,0,0.5-0.1
		c0.8-0.1,0.9-0.6,1-1.3c0.1-0.9,0.2-2.4,0.2-4.7v-4c0-3.5,0-4.1-0.1-4.9c-0.1-0.5-0.2-0.9-0.9-1c-0.4-0.1-0.6-0.1-0.9-0.1
		c-0.3,0-0.5-0.1-0.5-0.3c0-0.1,0.1-0.2,0.6-0.2c0.9,0,3.6,0.1,3.7,0.1c0.1,0,3.1-0.1,3.9-0.1c0.4,0,0.5,0.1,0.5,0.3
		c0,0.2-0.1,0.2-0.4,0.3c-0.2,0-0.4,0.1-0.6,0.1c-0.9,0.1-0.9,0.7-1,1.3c-0.1,0.7-0.1,1.1-0.1,4.6V455.7z"/>
	<path class="st0" d="M37.3,417.7c-0.3,0-0.4,0.1-0.5,0.4l-1.8,4.7c-0.6,1.5-0.9,3-0.9,3.6c0,1.1,0.5,1.6,1.7,1.7
		c0.6,0.1,1.5,0.2,2,0.2c0.8,0,1,0.3,1,0.6c0,0.5-0.5,0.6-1.2,0.6c-2.6,0-4.5-0.2-7.5-0.2c-0.6,0-4.4,0.2-7.2,0.2
		c-0.8,0-1.1-0.2-1.1-0.6c0-0.5,0.4-0.6,1.1-0.6c0.7-0.1,1.3-0.1,1.8-0.2c2-0.4,3.1-2.2,4.3-4.9l15.2-34.4c1.1-2.4,1.7-3.3,2.3-3.3
		c0.6,0,1.1,0.8,2.1,2.8c1.5,3.2,11,25,14.9,33.6c1.9,4.4,3.2,5.8,5.2,6.1c0.6,0.2,1.3,0.2,1.8,0.2c0.7,0,1.1,0.2,1.1,0.6
		c0,0.4-0.4,0.6-1.5,0.6c-5.6,0-12.1-0.1-15.7-0.2c-0.9,0-1.3-0.2-1.3-0.5c0-0.3,0.3-0.6,0.8-0.7c0.6-0.1,0.8-0.5,0.7-1l-3.8-9
		c-0.1-0.2-0.3-0.3-0.5-0.3H37.3z M48.7,413.1c0.3,0,0.3-0.2,0.3-0.3l-5-12.2c-0.2-0.4-0.3-0.3-0.4,0l-4.8,12.2
		c-0.1,0.2,0.1,0.3,0.2,0.3H48.7z"/>
	<path class="st0" d="M81.9,417c0,4.4-0.1,7.4,0.6,8.4c0.6,0.8,1.4,1,5,1c2.4,0,3.7,0,5-0.7c1-0.5,1.8-1.6,2.2-3.6
		c0.1-0.5,0.2-0.8,0.6-0.8c0.3,0,0.3,0.2,0.3,0.8c0,1-0.5,5.1-0.9,6.3c-0.3,1.1-0.7,1.2-2.4,1.2c-5.9,0-10-0.3-14.5-0.3
		c-2,0-4.4,0.1-6.7,0.1c-0.6,0-0.9-0.1-0.9-0.5c0-0.3,0.3-0.4,0.9-0.4c0.5,0,1-0.1,1.5-0.2c1.6-0.3,1.6-1,1.7-4.5
		c0.1-1.7,0.1-4.3,0.1-7v-7.6c0-7,0-7.8-0.1-9.2c-0.1-1.2-0.4-1.9-1.5-2.2c-0.4-0.1-1-0.2-1.7-0.2c-0.5,0-0.9-0.1-0.9-0.4
		c0-0.3,0.4-0.4,1.3-0.4c2.5,0,4.7,0.1,6.4,0.1c0.4,0,5.7-0.1,7.3-0.1c0.8,0,1,0.1,1,0.4c0,0.4-0.4,0.5-1,0.5c-0.4,0-0.9,0-1.5,0.2
		c-1.2,0.2-1.5,1-1.6,2.5c-0.1,1.4-0.1,2.2-0.1,9.3V417z"/>
	<path class="st0" d="M102.8,409.4c0-7,0-7.5-0.1-8.9c-0.1-1.6-0.4-2.3-1.6-2.5c-0.4-0.1-1-0.1-1.5-0.2c-0.5,0-0.9-0.1-0.9-0.4
		c0-0.4,0.3-0.4,1-0.4c2.5,0,4.7,0.1,6.6,0.1c0.9,0,11.9,0,12.7,0c0.9,0,1.6-0.1,2.2-0.2c0.3-0.1,0.6-0.1,0.8-0.1
		c0.2,0,0.3,0.2,0.3,0.4c0,0.3-0.2,1.2-0.3,2.2c-0.1,1-0.2,2.4-0.3,4.1c0,0.6-0.2,0.7-0.5,0.7c-0.3,0-0.4-0.3-0.4-0.7
		c0-0.5,0-0.7-0.2-1.3c-0.3-1-0.9-1.6-2.8-1.8c-1.6-0.1-5.6-0.2-6.9-0.2c-0.3,0-0.4,0.1-0.4,0.5v9.8c0,0.3,0,0.5,0.4,0.5
		c1.2,0,4.3,0,5.9,0c2.4-0.1,2.9-0.1,3.5-1c0.3-0.4,0.4-0.6,0.6-0.6c0.3,0,0.3,0.3,0.3,0.6c0,0.4-0.3,2-0.3,3.5
		c0,0.9-0.1,3.1-0.1,3.6s0,0.9-0.4,0.9c-0.3,0-0.4-0.3-0.4-0.7c0-0.3-0.1-0.6-0.1-0.9c-0.2-1.2-0.8-1.9-2.8-2.1
		c-1.2-0.1-5-0.1-6.2-0.1c-0.2,0-0.3,0.2-0.3,0.6v3c0,4.1,0,6.8,0.2,8.7c0.1,1.3,0.4,2.1,2,2.4c0.6,0.1,1,0.1,1.5,0.2
		c0.6,0,1,0.1,1,0.4c0,0.3-0.1,0.5-1,0.5c-2.4,0-2.8-0.1-7.3-0.1c-3.1,0-5.6,0.1-6.7,0.1c-0.6,0-0.9-0.2-0.9-0.4
		c0-0.2,0.1-0.4,0.8-0.4c0.4-0.1,0.6-0.1,1.1-0.2c1.2-0.2,1.4-1.3,1.5-3.1c0.2-2.3,0.2-4.3,0.2-8.4V409.4z"/>
	<path class="st0" d="M130.2,409.4c0-6.7-0.1-7.5-0.1-8.9c-0.1-1.8-0.6-2.3-1.6-2.5c-0.6-0.1-1.3-0.1-1.7-0.2
		c-0.5-0.1-0.8-0.2-0.8-0.5s0.3-0.4,0.9-0.4c1.9,0,6,0.1,6.6,0.1c0.8,0,5-0.1,6.9-0.1c4.1,0,6.9,0.4,8.8,1.5
		c2.1,1.1,3.9,3.3,3.9,6.6c0,3.6-2.1,6.4-5.8,8.7c2.6,3.8,5.8,8.4,8.4,11.4c2.3,2.5,3.3,3.3,4.5,3.4c0.5,0.1,0.7,0.1,1.1,0.1
		c0.5,0,0.7,0.2,0.7,0.4c0,0.4-0.4,0.4-0.9,0.4h-3.9c-4.4,0-6.3-0.4-7.8-1.4c-1.4-0.8-2.8-2.7-4.4-5.4c-2-3.3-3-5-3.7-6.2
		c-0.1-0.1-0.3-0.3-0.5-0.3h-2.8c-0.2,0-0.3,0.1-0.3,0.3v2.2c0,3.4,0,5.4,0.2,7.2c0.1,1.1,0.4,2.1,1.7,2.4c0.6,0.2,1.1,0.2,1.9,0.3
		c0.7,0,0.8,0.2,0.8,0.5c0,0.3-0.3,0.4-0.9,0.4c-2.9,0-7.6-0.1-7.9-0.1c-0.5,0-4.7,0.1-6.2,0.1c-0.6,0-0.9-0.1-0.9-0.4
		c0-0.3,0.3-0.4,0.8-0.4c0.4,0,1-0.1,1.5-0.2c0.9-0.2,1.2-1,1.3-2.5c0.2-1.8,0.2-4.8,0.2-9V409.4z M137.6,412.2
		c0,0.3,0.1,0.5,0.4,0.6c0.8,0.4,2.1,0.6,3.3,0.6c1.2,0,2-0.2,2.7-0.7c0.9-0.7,1.7-2.5,1.7-5.4c0-6.1-3.9-7.7-6.1-7.7
		c-0.7,0-1.4,0.1-1.7,0.2c-0.2,0.1-0.3,0.1-0.3,0.5V412.2z"/>
	<path class="st0" d="M164.9,409.4c0-7,0-7.9-0.1-9.3c-0.1-1.3-0.5-2-1.6-2.2c-0.4-0.1-1-0.1-1.4-0.1c-0.6,0-0.8-0.2-0.8-0.5
		c0-0.3,0.3-0.4,1-0.4c2.5,0,4.5,0.1,6.4,0.1c0.9,0,11.5,0,12.1,0c0.9,0,1.9-0.1,2.3-0.2c0.3-0.1,0.5-0.2,0.7-0.2
		c0.2,0,0.3,0.2,0.3,0.4s-0.1,0.7-0.2,1.9c-0.1,0.9-0.2,2.4-0.3,4.6c0,0.3-0.2,0.6-0.4,0.6c-0.2,0-0.4-0.2-0.4-0.6
		c0-0.5,0-0.9-0.2-1.5c-0.2-1-0.8-1.6-2.8-1.7c-1.4-0.1-5.2-0.2-6.5-0.2c-0.3,0-0.4,0.1-0.4,0.4v9.5c0,0.3,0,0.5,0.4,0.5
		c1.2,0,4.7,0,6.2,0c2.1-0.1,2.7-0.2,3.1-1c0.3-0.4,0.4-0.6,0.6-0.6c0.3,0,0.3,0.3,0.3,0.5c0,0.4-0.2,2-0.3,3.7c0,1,0,3.1,0,3.6
		c0,0.6-0.1,0.8-0.4,0.8c-0.3,0-0.4-0.3-0.5-0.7c0-0.3-0.1-0.6-0.1-1c-0.2-1.3-0.8-2-2.9-2.1c-1.2-0.1-4.7-0.2-6.1-0.2
		c-0.2,0-0.3,0.2-0.3,0.6v3c0,1.5,0,4,0,5.6c0,3,0.7,3.7,5.4,3.7c1.1,0,2.8-0.1,4-0.5c1.2-0.5,1.7-1.4,2.1-3.4
		c0.1-0.5,0.3-0.8,0.5-0.8c0.3,0,0.4,0.4,0.4,1c0,1.7-0.5,5-0.7,5.8c-0.3,1.1-0.6,1.2-2.2,1.2c-5.9,0-9.2-0.3-13.7-0.3
		c-2,0-3.8,0.1-6.2,0.1c-0.8,0-1-0.1-1-0.4c0-0.2,0.2-0.4,0.9-0.4c0.5-0.1,0.9-0.1,1.3-0.2c1.2-0.2,1.4-1.8,1.5-4.5
		c0.1-1.7,0.1-4.3,0.1-6.9V409.4z"/>
	<path class="st0" d="M193.2,409.4c0-6.3,0-7.5-0.1-8.9c-0.1-1.3-0.3-2.4-1.9-2.6c-0.3,0-0.8,0-1.6-0.1c-0.6,0-0.8-0.3-0.8-0.5
		c0-0.3,0.3-0.4,1-0.4c1.1,0,5,0.1,6.9,0.1c1.4,0,3.4,0,7-0.1c7.4,0,13.1,1,17.1,5c2.2,2.2,4.1,5.8,4.1,10.9c0,5.2-2.3,9.5-4.7,11.8
		c-2.1,2.2-6.1,5.1-14.7,5.1c-1.7,0-3.2,0-4.6-0.2c-1.7-0.2-3.4-0.3-4.3-0.3c-1,0-2.1,0-3.3,0c-1.2,0-1.8,0.1-3,0.1
		c-0.7,0-0.9-0.2-0.9-0.4c0-0.3,0.3-0.4,0.8-0.4c0.6,0,0.9-0.1,1.3-0.2c0.9-0.1,1.3-0.9,1.4-2.6c0.1-2.1,0.2-5.1,0.2-8.8V409.4z
		 M200.8,414.2c0,4.6,0,7.5,0.1,8.4c0.1,1.8,0.3,2.6,0.7,3.1c0.8,0.9,2.5,1.6,4.4,1.6c3,0,5.6-0.6,7.8-3c2.2-2.2,2.8-6.1,2.8-10.1
		c0-3.9-1.4-7.4-3.2-9.9c-3-3.9-7.1-4.7-9.9-4.7c-0.9,0-1.9,0.1-2.3,0.4c-0.3,0.2-0.4,0.4-0.4,0.8c0,1.5,0,4.6,0,8.1V414.2z"/>
	<path class="st0" d="M242.2,428.7c-1-0.4-1.3-1.1-1.3-2.3c0-4.6,0.2-6.8,0.3-8.4c0.1-1,0.3-1.4,0.7-1.4c0.4,0,0.5,0.5,0.5,1
		c0.1,0.6,0.1,1.1,0.3,1.8c1,4.7,5.2,7.3,9.7,7.3c5.4,0,7.1-2.8,7.1-5.2c0-2.4-0.5-4.4-5.3-7.7l-3.5-2.5c-6.9-4.9-8.9-8.9-8.9-13.9
		c0-6.5,5.4-11.8,14.5-11.8c2.4,0,4.2,0.1,6.5,0.6c0.9,0.2,1.9,0.4,2.8,0.7c0.6,0.2,0.7,0.3,0.7,0.8c-0.1,1.8-0.2,3-0.2,8
		c0,1-0.2,1.4-0.6,1.4c-0.3,0-0.5-0.2-0.6-1.1c-0.1-0.6-0.2-2-1-3.3c-1.1-1.8-3.7-3.7-7.8-3.7c-4.7,0-6.4,2.6-6.4,5.2
		c0,1.9,0.7,4.2,4.6,6.8l2.9,1.9c8,5.3,10.5,8.8,10.5,14.6c0,3.9-1.8,7.8-6,10.3c-3.3,2-6.9,2.4-9.9,2.4
		C247.4,430.3,244.4,429.7,242.2,428.7"/>
	<path class="st0" d="M289,416.9c0,3.4,0,7.4,0.2,9.2c0.1,1.1,0.4,2,1.7,2.2c0.6,0.1,1.1,0.1,1.9,0.2c0.7,0,0.9,0.2,0.9,0.5
		c0,0.3-0.2,0.4-1,0.4c-2.9,0-7.1-0.1-7.8-0.1c-0.7,0-4.9,0.1-6.3,0.1c-0.7,0-1-0.1-1-0.4c0-0.3,0.3-0.4,0.9-0.4
		c0.4,0,0.9-0.1,1.4-0.2c0.9-0.2,1.3-1.1,1.4-2.4c0.2-1.8,0.3-4.9,0.3-9.1v-16.9c-1.7,0-4.4-0.1-6.5,0.1c-2.4,0.1-3.4,0.7-3.9,2.2
		c-0.2,0.5-0.3,0.7-0.4,1c-0.1,0.3-0.2,0.7-0.5,0.7c-0.4,0-0.4-0.3-0.4-0.9c0.2-1.8,0.7-4.1,1-5.7c0.1-0.6,0.2-1.1,0.5-1.1
		c0.3,0,0.5,0.1,1.5,0.3c0.8,0.2,3.1,0.3,4.8,0.3h18.7c1.3,0,2.1-0.1,2.7-0.2c0.7-0.1,1-0.3,1.3-0.3c0.4,0,0.4,0.3,0.4,1.3
		c0,0.6-0.3,4.6-0.3,5.7c0,0.6-0.2,0.9-0.4,0.9c-0.3,0-0.4-0.3-0.5-0.8c0-0.5,0-0.6-0.1-0.9c-0.2-1.3-0.8-2.4-3.4-2.5
		c-1.4-0.1-3.7-0.2-6.9-0.2V416.9z"/>
	<path class="st0" d="M307.7,420.5c-0.2,0-0.3,0.1-0.4,0.3l-1.3,3.5c-0.4,1.1-0.7,2.2-0.7,2.8c0,0.8,0.4,1.2,1.3,1.3
		c0.5,0.1,1.2,0.1,1.5,0.2c0.7,0,0.8,0.2,0.8,0.4c0,0.3-0.3,0.4-0.9,0.4c-1.9,0-3.4-0.1-5.7-0.1c-0.5,0-3.3,0.1-5.5,0.1
		c-0.6,0-0.9-0.2-0.9-0.4c0-0.3,0.3-0.4,0.8-0.4c0.5,0,1-0.1,1.4-0.2c1.5-0.3,2.4-1.6,3.3-3.7l11.5-26c0.8-1.9,1.3-2.5,1.8-2.5
		c0.4,0,0.8,0.6,1.6,2.1c1.1,2.4,8.4,18.9,11.3,25.5c1.5,3.4,2.4,4.4,3.9,4.6c0.5,0.1,1,0.1,1.4,0.2c0.6,0,0.8,0.2,0.8,0.4
		c0,0.3-0.3,0.4-1.1,0.4c-4.2,0-9.1-0.1-11.9-0.1c-0.7,0-1-0.1-1-0.4s0.2-0.4,0.6-0.5c0.5-0.1,0.6-0.4,0.5-0.8l-2.9-6.8
		c0-0.2-0.2-0.3-0.4-0.3H307.7z M316.4,417.1c0.3,0,0.3-0.1,0.2-0.2l-3.8-9.2c-0.1-0.3-0.2-0.2-0.3,0l-3.7,9.2c0,0.1,0,0.2,0.2,0.2
		H316.4z"/>
	<path class="st0" d="M347.8,416.9c0,3.4,0,7.4,0.2,9.2c0.1,1.1,0.4,2,1.7,2.2c0.6,0.1,1.1,0.1,1.9,0.2c0.7,0,0.9,0.2,0.9,0.5
		c0,0.3-0.2,0.4-1,0.4c-2.9,0-7.1-0.1-7.8-0.1c-0.7,0-4.9,0.1-6.3,0.1c-0.7,0-1-0.1-1-0.4c0-0.3,0.3-0.4,0.9-0.4
		c0.4,0,0.9-0.1,1.4-0.2c0.9-0.2,1.2-1.1,1.4-2.4c0.2-1.8,0.3-4.9,0.3-9.1v-16.9c-1.7,0-4.4-0.1-6.5,0.1c-2.4,0.1-3.4,0.7-3.9,2.2
		c-0.2,0.5-0.3,0.7-0.4,1c-0.1,0.3-0.2,0.7-0.5,0.7c-0.4,0-0.4-0.3-0.3-0.9c0.2-1.8,0.7-4.1,1-5.7c0.1-0.6,0.2-1.1,0.5-1.1
		c0.3,0,0.5,0.1,1.5,0.3c0.8,0.2,3.1,0.3,4.8,0.3h18.7c1.3,0,2.1-0.1,2.7-0.2c0.7-0.1,1-0.3,1.3-0.3c0.4,0,0.4,0.3,0.4,1.3
		c0,0.6-0.3,4.6-0.3,5.7c0,0.6-0.2,0.9-0.4,0.9c-0.4,0-0.4-0.3-0.5-0.8c-0.1-0.5-0.1-0.6-0.1-0.9c-0.2-1.3-0.8-2.4-3.4-2.5
		c-1.4-0.1-3.7-0.2-6.9-0.2V416.9z"/>
	<path class="st0" d="M365,409.4c0-7,0-7.9-0.1-9.3c-0.1-1.3-0.5-2-1.6-2.2c-0.4-0.1-1-0.1-1.4-0.1c-0.6,0-0.8-0.2-0.8-0.5
		c0-0.3,0.3-0.4,1-0.4c2.5,0,4.5,0.1,6.4,0.1c0.9,0,11.5,0,12.1,0c0.9,0,1.9-0.1,2.3-0.2c0.3-0.1,0.5-0.2,0.7-0.2
		c0.2,0,0.3,0.2,0.3,0.4s-0.1,0.7-0.2,1.9c-0.1,0.9-0.2,2.4-0.3,4.6c0,0.3-0.2,0.6-0.4,0.6c-0.2,0-0.4-0.2-0.4-0.6
		c0-0.5,0-0.9-0.2-1.5c-0.2-1-0.8-1.6-2.8-1.7c-1.4-0.1-5.2-0.2-6.5-0.2c-0.3,0-0.4,0.1-0.4,0.4v9.5c0,0.3,0.1,0.5,0.4,0.5
		c1.2,0,4.7,0,6.2,0c2.1-0.1,2.7-0.2,3.1-1c0.3-0.4,0.4-0.6,0.6-0.6c0.3,0,0.3,0.3,0.3,0.5c0,0.4-0.2,2-0.3,3.7c0,1,0,3.1,0,3.6
		c0,0.6-0.1,0.8-0.4,0.8c-0.3,0-0.4-0.3-0.5-0.7c0-0.3-0.1-0.6-0.1-1c-0.2-1.3-0.8-2-2.9-2.1c-1.2-0.1-4.7-0.2-6.1-0.2
		c-0.2,0-0.3,0.2-0.3,0.6v3c0,1.5,0,4,0,5.6c0.1,3,0.7,3.7,5.4,3.7c1.1,0,2.8-0.1,4-0.5c1.2-0.5,1.7-1.4,2.1-3.4
		c0.1-0.5,0.3-0.8,0.5-0.8c0.3,0,0.4,0.4,0.4,1c0,1.7-0.5,5-0.7,5.8c-0.3,1.1-0.6,1.2-2.2,1.2c-5.9,0-9.2-0.3-13.7-0.3
		c-2,0-3.8,0.1-6.2,0.1c-0.8,0-1-0.1-1-0.4c0-0.2,0.2-0.4,0.9-0.4c0.5-0.1,0.9-0.1,1.3-0.2c1.2-0.2,1.4-1.8,1.5-4.5
		c0.1-1.7,0.1-4.3,0.1-6.9V409.4z"/>
	<path class="st0" d="M407.4,424c-5.3-4.8-6.8-10.6-6.8-16.7c0-3.9,1.2-10.9,6.7-15.8c4.6-4.2,10-5.9,17.9-5.9
		c3.1,0,5.6,0.3,7.7,0.7c2.4,0.4,3.7,0.7,5.3,0.7c0.6,0.1,0.6,0.4,0.6,0.7c0,0.5-0.2,1.8-0.3,3.8c-0.1,1.9-0.1,5.2-0.2,6.7
		c-0.1,0.8-0.2,1.4-0.6,1.4c-0.4,0-0.6-0.4-0.7-1.2c-0.1-1.3-0.3-3.5-2.1-5.6c-1.9-2.1-5.7-3.6-10.9-3.6c-3.2,0-5.8,0.8-7.9,2.7
		c-3.3,3-4.8,8.3-4.8,14.4c0,11.7,6.1,19.6,15.1,19.6c4.4,0,7.2-0.4,9.3-2.9c0.8-0.8,1.4-2.1,1.8-3.8c0.3-1.2,0.4-1.6,0.9-1.6
		c0.4,0,0.4,0.6,0.4,1c0,1-0.6,5.9-1.2,8.6c-0.1,0.8-0.5,1.3-1.4,1.6c-2.2,0.9-5.8,1.3-9.3,1.3C420,430.3,413.1,429,407.4,424"/>
	<path class="st0" d="M443,413.3c0-8.6,5.8-17,18.4-17c10.9,0,17.8,7.3,17.8,16.1c0,10-6.8,17.7-18.1,17.7
		C448.4,430,443,420.9,443,413.3 M470.6,414.2c0-7.1-3-15.3-10.6-15.3c-4,0-8.4,2.2-8.4,12.4c0,8.1,3.4,15.9,10.8,15.9
		C465.1,427.3,470.6,426.1,470.6,414.2"/>
	<path class="st0" d="M493.2,417c0,4.4-0.1,7.4,0.6,8.4c0.6,0.8,1.4,1,5,1c2.4,0,3.7,0,5-0.7c1-0.5,1.8-1.6,2.2-3.6
		c0.1-0.5,0.2-0.8,0.6-0.8c0.3,0,0.3,0.2,0.3,0.8c0,1-0.5,5.1-0.9,6.3c-0.4,1.1-0.7,1.2-2.4,1.2c-5.9,0-10-0.3-14.5-0.3
		c-2,0-4.4,0.1-6.7,0.1c-0.6,0-0.9-0.1-0.9-0.5c0-0.3,0.3-0.4,0.9-0.4c0.5,0,1-0.1,1.5-0.2c1.5-0.3,1.6-1,1.7-4.5
		c0.1-1.7,0.1-4.3,0.1-7v-7.6c0-7,0-7.8-0.1-9.2c-0.1-1.2-0.4-1.9-1.5-2.2c-0.4-0.1-1-0.2-1.7-0.2c-0.5,0-0.9-0.1-0.9-0.4
		c0-0.3,0.4-0.4,1.3-0.4c2.5,0,4.7,0.1,6.4,0.1c0.4,0,5.7-0.1,7.3-0.1c0.8,0,1,0.1,1,0.4c0,0.4-0.4,0.5-1,0.5c-0.4,0-0.9,0-1.5,0.2
		c-1.2,0.2-1.5,1-1.6,2.5c-0.1,1.4-0.1,2.2-0.1,9.3V417z"/>
	<path class="st0" d="M519.4,417c0,4.4-0.1,7.4,0.6,8.4c0.6,0.8,1.4,1,5,1c2.4,0,3.7,0,5-0.7c1-0.5,1.8-1.6,2.2-3.6
		c0.1-0.5,0.2-0.8,0.6-0.8c0.3,0,0.3,0.2,0.3,0.8c0,1-0.5,5.1-0.9,6.3c-0.3,1.1-0.7,1.2-2.4,1.2c-5.9,0-10-0.3-14.5-0.3
		c-2,0-4.4,0.1-6.7,0.1c-0.6,0-0.9-0.1-0.9-0.5c0-0.3,0.3-0.4,0.9-0.4c0.5,0,1-0.1,1.5-0.2c1.6-0.3,1.6-1,1.7-4.5
		c0.1-1.7,0.1-4.3,0.1-7v-7.6c0-7,0-7.8-0.1-9.2c-0.1-1.2-0.4-1.9-1.5-2.2c-0.4-0.1-1-0.2-1.7-0.2c-0.5,0-0.9-0.1-0.9-0.4
		c0-0.3,0.4-0.4,1.3-0.4c2.5,0,4.7,0.1,6.4,0.1c0.4,0,5.7-0.1,7.3-0.1c0.8,0,1,0.1,1,0.4c0,0.4-0.4,0.5-1,0.5c-0.4,0-0.9,0-1.5,0.2
		c-1.2,0.2-1.5,1-1.6,2.5c-0.1,1.4-0.1,2.2-0.1,9.3V417z"/>
	<path class="st0" d="M538,409.4c0-7,0-7.9-0.1-9.3c-0.1-1.3-0.5-2-1.6-2.2c-0.4-0.1-1-0.1-1.4-0.1c-0.6,0-0.8-0.2-0.8-0.5
		c0-0.3,0.3-0.4,0.9-0.4c2.5,0,4.5,0.1,6.4,0.1c0.9,0,11.5,0,12.2,0c0.9,0,1.9-0.1,2.3-0.2c0.3-0.1,0.5-0.2,0.7-0.2
		c0.2,0,0.3,0.2,0.3,0.4s-0.1,0.7-0.2,1.9c-0.1,0.9-0.2,2.4-0.3,4.6c0,0.3-0.2,0.6-0.4,0.6c-0.2,0-0.4-0.2-0.4-0.6
		c0-0.5,0-0.9-0.2-1.5c-0.2-1-0.8-1.6-2.8-1.7c-1.4-0.1-5.2-0.2-6.5-0.2c-0.3,0-0.3,0.1-0.3,0.4v9.5c0,0.3,0,0.5,0.3,0.5
		c1.2,0,4.7,0,6.2,0c2.1-0.1,2.7-0.2,3.1-1c0.3-0.4,0.4-0.6,0.6-0.6c0.3,0,0.3,0.3,0.3,0.5c0,0.4-0.2,2-0.3,3.7c0,1,0,3.1,0,3.6
		c0,0.6-0.1,0.8-0.4,0.8c-0.3,0-0.4-0.3-0.5-0.7c0-0.3-0.1-0.6-0.1-1c-0.2-1.3-0.8-2-2.9-2.1c-1.2-0.1-4.7-0.2-6.1-0.2
		c-0.2,0-0.3,0.2-0.3,0.6v3c0,1.5,0,4,0,5.6c0,3,0.7,3.7,5.4,3.7c1.1,0,2.8-0.1,4-0.5c1.2-0.5,1.7-1.4,2.1-3.4
		c0.1-0.5,0.3-0.8,0.5-0.8c0.3,0,0.4,0.4,0.4,1c0,1.7-0.5,5-0.7,5.8c-0.3,1.1-0.6,1.2-2.2,1.2c-5.9,0-9.2-0.3-13.7-0.3
		c-2,0-3.8,0.1-6.2,0.1c-0.8,0-1-0.1-1-0.4c0-0.2,0.2-0.4,0.9-0.4c0.5-0.1,0.9-0.1,1.3-0.2c1.2-0.2,1.4-1.8,1.5-4.5
		c0.1-1.7,0.1-4.3,0.1-6.9V409.4z"/>
	<path class="st0" d="M592.3,425.3c0,2.5-0.1,2.8-0.9,3.1c-2.3,0.9-6.7,1.6-10.6,1.6c-12.1,0-20.5-5.4-20.5-16.9
		c0-7.2,3.7-11.8,7.7-14c4.4-2.6,9.1-2.8,12.4-2.8c2.6,0,5.1,0.3,7,0.6c1.5,0.2,2.9,0.5,4.1,0.5c0.4,0,0.5,0.2,0.4,0.6
		c-0.1,0.4-0.5,2.2-0.5,7.9c0,0.7-0.2,0.9-0.5,0.9c-0.3,0-0.5-0.3-0.5-0.7c-0.1-0.6-0.1-1.1-0.5-2.2c-0.8-2.9-4.7-5-10.6-5
		c-3.2,0-5.8,0.9-7.7,3.1c-1.7,1.9-2.7,5.1-2.7,9.3c0,7.7,3.7,15.9,12.8,15.9c0.6,0,1.8,0,2.4-0.5c0.3-0.3,0.5-0.6,0.5-1.2V423
		c0-1.8,0-3.4,0-5c0-2.5-0.6-3.4-2-3.6c-0.6-0.1-1.1-0.1-1.9-0.2c-0.3,0-0.7-0.2-0.7-0.4s0.2-0.4,0.9-0.4c2.8,0,6.1,0.1,7.3,0.1
		c1.6,0,4.4-0.1,6.7-0.1c0.6,0,1,0.1,1,0.4c0,0.3-0.3,0.4-0.7,0.4c-0.2,0-0.7,0.1-1.2,0.1c-1,0.2-1.5,0.7-1.6,2.2
		c-0.1,1.4-0.1,3.6-0.1,5.7V425.3z"/>
	<path class="st0" d="M601.4,409.4c0-7,0-7.9-0.1-9.3c-0.1-1.3-0.5-2-1.6-2.2c-0.4-0.1-1-0.1-1.4-0.1c-0.6,0-0.8-0.2-0.8-0.5
		c0-0.3,0.3-0.4,1-0.4c2.5,0,4.5,0.1,6.4,0.1c0.9,0,11.5,0,12.1,0c0.9,0,1.9-0.1,2.3-0.2c0.3-0.1,0.5-0.2,0.7-0.2
		c0.2,0,0.3,0.2,0.3,0.4s-0.1,0.7-0.2,1.9c-0.1,0.9-0.2,2.4-0.3,4.6c0,0.3-0.2,0.6-0.4,0.6c-0.2,0-0.4-0.2-0.4-0.6
		c0-0.5,0-0.9-0.2-1.5c-0.2-1-0.8-1.6-2.8-1.7c-1.4-0.1-5.2-0.2-6.5-0.2c-0.3,0-0.4,0.1-0.4,0.4v9.5c0,0.3,0,0.5,0.4,0.5
		c1.2,0,4.7,0,6.2,0c2.1-0.1,2.7-0.2,3.1-1c0.3-0.4,0.4-0.6,0.6-0.6c0.3,0,0.3,0.3,0.3,0.5c0,0.4-0.2,2-0.3,3.7c0,1,0,3.1,0,3.6
		c0,0.6-0.1,0.8-0.4,0.8c-0.3,0-0.4-0.3-0.5-0.7c-0.1-0.3-0.1-0.6-0.1-1c-0.2-1.3-0.8-2-2.9-2.1c-1.2-0.1-4.7-0.2-6.1-0.2
		c-0.2,0-0.3,0.2-0.3,0.6v3c0,1.5,0,4,0,5.6c0,3,0.7,3.7,5.4,3.7c1.1,0,2.8-0.1,4-0.5c1.2-0.5,1.7-1.4,2.1-3.4
		c0.1-0.5,0.3-0.8,0.5-0.8c0.3,0,0.4,0.4,0.4,1c0,1.7-0.5,5-0.7,5.8c-0.3,1.1-0.6,1.2-2.2,1.2c-5.9,0-9.2-0.3-13.7-0.3
		c-2,0-3.8,0.1-6.2,0.1c-0.8,0-1-0.1-1-0.4c0-0.2,0.2-0.4,0.9-0.4c0.5-0.1,0.9-0.1,1.3-0.2c1.2-0.2,1.4-1.8,1.5-4.5
		c0.1-1.7,0.1-4.3,0.1-6.9V409.4z"/>
</g>
</svg>
